<svg xmlns="http://www.w3.org/2000/svg" enable-background="new 0 0 1920 1080" viewBox="0 0 1920 1080"><ellipse cx="961.5" cy="743.2" fill="#2a94f4" opacity=".1" rx="874.7" ry="36.6"/><ellipse cx="453.9" cy="860.8" fill="#2a94f4" opacity=".1" rx="82" ry="6.1"/><path fill="#cce9ff" d="M1655.4 735.8H251.6c-98.3 0-178-79.7-178-178s79.7-178 178-178h1403.8c98.3 0 178 79.7 178 178s-79.7 178-178 178z"/><path fill="#0e538c" d="M1651.2 697.1H255.8c-76.9 0-139.3-62.4-139.3-139.3s62.4-139.3 139.3-139.3h1395.5c76.9 0 139.3 62.4 139.3 139.3s-62.4 139.3-139.4 139.3z" opacity=".15"/><path fill="#ffbe55" d="M1490.2 697.1H255.8c-76.9 0-139.3-62.4-139.3-139.3s62.4-139.3 139.3-139.3h1234.5c28 0 50.6 22.7 50.6 50.6v177.3c0 28-22.7 50.7-50.7 50.7z"/><path fill="#fff" d="M1455.4 580.4c-.2.6-7-17-6.1-23.4.9-6.4 11-23.4 11-23.4s4.1 8.2 2.2 16c-1.7 7.9-3.9 23.3-7.1 30.8zM1469.2 608.3s30.7-13.1 34.5-18.1c3.7-5 6.1-7.3 6.1-7.3s-.1 16-5.8 20c-5.6 4.1-34.8 5.4-34.8 5.4zM1388.1 634.8l-3.7 19-17-3.5-5.8 23.4 3.6 9.1-13.3-12.9s5-24 10.2-28.4c0 0 11.3 3 15.7 1.5 4.5-1.5 14.7-16.6 14.7-16.6l-4.4 8.4z"/><path fill="#fff" d="M1460.3 574s6-7.1 8.4-20c2.4-12.9 1.5-20 1.5-20s-12.9 14.3-14.4 24.7c-1.5 10.4.9 17.1.9 17.1s-4.5 3.8-6.3 10.9c-1.7 7.1-1.8 11.4-14.9 17.9-13.2 6.5-48.8 18.8-48.8 18.8s-3.8 12.6-4.3 18.1c-.6 5.5-1.4 6.9-1.4 6.9l-16.6-1.8s-7.2 22.9-7.6 25c-.4 2.1 7.9 15.4 8.3 16.6.4 1.2 9.7-1.5 9.7-3.4s-7-9.9-7-9.9 1-16.2 1.6-16.9c.6-.8 24.6 12.6 36.4 5.7 11.9-6.8 9.9-14.7 9.9-14.7s28.8-5.4 41.2-15.3c12.5-9.9 9.6-12.8 9.6-12.8l16.6-.2 29.6-19.6 2.7-11.4s-6.2 5.7-9.8 7.7c-3.5 2-29.5 10.1-31.2 8.6-1.7-1.5.5-11.5.5-11.5s7.3-1.7 8.8-4.8c1.5-3.1 7.6-9.7-.5-12.1-8.2-2.4-13.6-8.6-22.9-3.6z"/><path fill="#fff" d="M1465.3 617.4c-1.2 2.3-2.7 4.5-4.4 6.5-6.3 7.3-15.7 11.8-24.8 14.6-4.7 1.5-9.5 3-14.3 3.6-2.6.3-5.4.7-8 .3-.6-.1-1.1-.2-1.7-.3-.9 4.8-2.8 10.2-7 13-5.7 3.8-11.9 5.1-18.4 2.4-1.9-.8-3.7-1.8-5.5-2.6-.7-.3-2.7-.7-2-.7-.3 0-.5-.1-.8-.1 1.3.2-4.9 1.3-2.7.4-.6.3-.9.4-1.1.4-.1.2-.3.4-.6.7-.2.3-1.4 2.5-1.1 1.9-.2.5-.4.9-.6 1.4 6.9 2.8 24 10.2 33.5 4.8 11.9-6.8 9.9-14.7 9.9-14.7s28.8-5.4 41.2-15.3c7.9-6.3 9.6-9.7 9.9-11.4-.8-1.5-1.3-3.2-1.5-4.9zM1375.9 625c-.9-6 3.2-11.5 9.1-12.5 6-.9 11.5 3.2 12.5 9.1.9 6-3.2 11.5-9.1 12.5-6 1-11.6-3.1-12.5-9.1z"/><path fill="#fcd2b1" d="m462.9 795.1 19.8 53.1 31.4 2.7 16.1-2.4-33.7-10.7-15.6-49.1z"/><path fill="#0e538c" d="m343.1 682.2 74.4 2.5 58.9 150.6 19.5-4.6-52.2-179.9s-3.7-9.9-26.2-11.3c-21.8-1.4-109.7-9.4-119.9-7.1-24.1 5.6 50.8 29 45.5 49.8zM321.4 447.7c-6.9 12.9-28.9 7.8-28.9 7.8-12.3-7.3-16.7-23.6-9.7-36.5l4.7-8.8c6.9-12.9 22.5-17.5 34.8-10.2l5.6 3.3c12.3 7.3 18.2 27.6 3.7 41.1l-10.2 3.3z"/><path fill="#ffe3ca" d="M336.4 420c-1.2 2.1-2.5 4.2-4.1 6.3-10.3 13.6-25.1 19.9-35.3 15.7-3.9 6.6-8.5 12-12.9 16.2-4.9 4.9-14.9 7.2-14.9 7.2-7.2 9.5-5.1 38.4 18.6 42.8 14.2 2.7 12.2-13.4 7.7-23.6-2.1-4.8-2-7.5-1.4-10 2.3-9 6.3-13 11.6-15.8 3-1.2 5.8-1.3 8.2-1.1 5.4.6 10.6-1.9 13.3-6.6l8.3-14.4c2.9-5.3 3-11.5.9-16.7z"/><path fill="#fcd2b1" d="m389 801.8-.9 36.3 6.6 9.1 18 12.5L410 842l-6.6-4.7.3-38.1z"/><path fill="#0e538c" d="m252.9 601.9 7.7 22.8 15.3 2.9 123.8 16s11.3-2.9 17.4 16c8.6 26.9-10.5 173.8-10.5 173.8l-18.4-1.4-4.5-141s-120.6 14.5-154.4 1.3c-13-5.1-21.7-30.2-18.4-54.7 2.6-19.3 15.9-36.3 15.9-36.3l26.1.6z"/><path fill="#2a94f4" d="M310.9 597.6c1.1-32.9-1.3-118.4-16.5-118.4-1.5 0-2.9.4-4.1 1.2-4.7-1-12.2-6.4-18.8-15.6h-.1s-24.7 6.3-34 10.2c-6.4 2.7-7.3 90-8.1 94.6-2.8 16.4-10.4 34.9-15.3 47.7-3.9 10.2-4 28.9-4 28.9s18.4-14.3 39.7-18.1c9.7-2.2 42.7.9 45 2.1 2.1 1.1-.5-10.7-.8-16.1 2.3 3.5 7.6 5.1 12.5 6.5 13.9 3.9 74.9 15.5 74.9 15.5l10.5-3.8-80.9-34.7z"/><path fill="#fcd2b1" d="M306.9 606.5c16.2 3.3 19.4 14.2 25.3 17.9 6 3.7 13.9 6.8 13.9 6.7 2.5-1.7-5.6-6.6-7.8-9.3-2.2-2.7-1.2-3.5 4-.7 5 2.7 7.2 8.3 10.8 12.2 3.1 3.4 4.3.9 4.3.9s.2-9.2-4.3-14.7c-5.4-6.7-15.8-10-17.6-11.1-3.2-2-13.9-4.5-21.8-5.1-8.9-.7-18.4.9-6.8 3.2z"/><path fill="#2a94f4" d="m240.4 581.8 13.6-77.7s4.6-18 .1-23.9c-5.4-7-16.4-5.7-16.4-5.7s-13.2 7-17.6 69.8c-3.1 43-5.2 55.8 12.3 58.8 16.4 2.8 85.5 11.1 85.5 11.1l3.9-11.1-81.4-21.3z"/><path fill="#cce9ff" d="m338.1 632.6 108.4 6.7.1-2.3-108.4-6.7z"/><path fill="#cce9ff" d="M386 633.1c-.1 1.8 1.1 3.3 2.6 3.4l55.6 3.5c1.5.1 3.6-.9 5.7-5.4l30.4-51c.1-2.3-1.5-3.8-3-3.5l-57.1-1.7c-1.5.3-2.8 1.4-3.8 3.8L386 633.1z"/><path fill="#b1dffc" d="M392.6 636h-.6l-54.3-3.4c1.9 1.2 5.1 2.1 8.8 2.3l45.4 2.8h.6l45.4 2.8c3.7.2 7-.3 9-1.2l-54.3-3.3z"/><path fill="#0e538c" d="M316.2 405.7c.4.1 19.5-19.4-3.2-25.4-19.2-5.1-26.5 21.1 3.2 25.4z"/><path fill="#1c4454" d="M388.1 838.1s2.2 5.6 21.9 3.9c0 0 7.6 7.5 17.7 6.7 10.1-.8 10.8 8.5 10.8 8.5l.1 5.8-54.7-3.2v-17.4c0-2.4 1.9-4.3 4.2-4.3zM479.7 840.3s3.4 5 22.3-.9c0 0 9 5.7 18.7 2.8 9.7-3 12.4 6 12.4 6l1.3 5.7-54.1 8.4-3.7-17c-.6-2.3.9-4.5 3.1-5z"/><path fill="#f7f7f7" d="m240.4 581.8 13.6-77.7s4.6-18 .1-23.9c-5.4-7-16.4-5.7-16.4-5.7s-13.2 7-17.6 69.8c-3.1 43-5.2 55.8 12.3 58.8 16.4 2.8 85.5 11.1 85.5 11.1l3.9-11.1-81.4-21.3z" opacity=".1"/></svg>