<svg xmlns="http://www.w3.org/2000/svg" enable-background="new 0 0 1920 1080" viewBox="0 0 1920 1080"><ellipse cx="960" cy="744.7" fill="#2a94f4" opacity=".1" rx="874.7" ry="36.6"/><ellipse cx="1494.4" cy="907.1" fill="#2a94f4" opacity=".1" rx="56.7" ry="13.6"/><ellipse cx="1653.1" cy="910.8" fill="#2a94f4" opacity=".1" rx="29.9" ry="7.2"/><path fill="#cce9ff" d="M1655.4 735.8H251.6c-98.3 0-178-79.7-178-178s79.7-178 178-178h1403.8c98.3 0 178 79.7 178 178s-79.7 178-178 178z"/><path fill="#0e538c" d="M1651.2 697.1H255.8c-76.9 0-139.3-62.4-139.3-139.3s62.4-139.3 139.3-139.3h1395.5c76.9 0 139.3 62.4 139.3 139.3s-62.4 139.3-139.4 139.3z" opacity=".15"/><path fill="#ffbe55" d="M515.9 697.1H255.8c-76.9 0-139.3-62.4-139.3-139.3s62.4-139.3 139.3-139.3h260.1c28 0 50.6 22.7 50.6 50.6v177.3c0 28-22.6 50.7-50.6 50.7z"/><path fill="#679b46" d="M401.7 697.1h4.6c4.8 0 8.7-3.9 8.7-8.7V675c0-4.8-3.9-8.7-8.7-8.7h-4.6c-4.8 0-8.7 3.9-8.7 8.7v13.4c0 4.8 3.9 8.7 8.7 8.7zM459.6 697.1h3.3c4.8 0 8.7-3.9 8.7-8.7V675c0-4.8-3.9-8.7-8.7-8.7h-3.3c-4.8 0-8.7 3.9-8.7 8.7v13.4c0 4.8 3.9 8.7 8.7 8.7z"/><path fill="#679b46" d="M464.4 649.9s27.7-.6 33-18.8v-.1c0-1.1 0-16.5 16.5-18.2h.1c.9-.3 20.7-5.9 23 18.3 0 0 3.5 40.7-64.9 45.4"/><path fill="#b57400" d="M487 681.7c.2 0 .4-.2.4-.4.2-6 2.3-67.3-49-73.3 0 0-64.7-9.6-63.7 71.9 0 .2.2.4.4.4l111.9 1.4z"/><path fill="#fcad00" d="M375.2 682.3h111.2c.2 0 .4-.2.4-.4v-6.2c0-.2-.2-.4-.4-.4H375.2c-.2 0-.4.2-.4.4v6.2c-.1.2.1.4.4.4zM459 674.8c.3-4.6 2.5-42.7-19.9-54.7-.2-.1-.5 0-.6.2-.1.2 0 .5.2.6 21.9 11.7 19.8 49.4 19.5 53.8 0 .2.2.4.4.5.2.1.4-.1.4-.4zM402.4 675.2c.2 0 .4-.2.4-.5-.3-4.4-2.5-42.1 19.5-53.8.2-.1.3-.4.2-.6-.1-.2-.4-.3-.6-.2-22.4 11.9-20.3 50.1-19.9 54.7 0 .3.2.5.4.4z"/><path fill="#fcad00" d="M397 620.9h68.7c.2 0 .4-.2.4-.4v-.1c0-.2-.2-.4-.4-.4H397c-.2 0-.4.2-.4.4v.1c0 .2.2.4.4.4zM379.9 649.3h103c.2 0 .4-.2.4-.4v-.3c0-.2-.2-.4-.4-.4h-103c-.2 0-.4.2-.4.4v.3c-.1.2.1.4.4.4z"/><path fill="#0b4870" d="M1805 303.2c40.7-1.4 39.8 20.4 39.2 48.9-3 152-132.2 87.7-94 37.1 18.5-24.5 15.3.8 12.9-52.7-.9-19.1 29.1-32.9 41.9-33.3z"/><path fill="#b97a59" d="M1802.6 417c-8.5-1.4-53 42.1-64.7 53.9-11.7 11.9-23.7 28.2-11.3 28.2 12.4 0 25.3-11.6 35.1-19.4 9.8-7.8 23-19.2 30.3-24.4 7.2-5.1 19-36.9 10.6-38.3z"/><path fill="#b97a59" d="M1738.2 510.1s-5.4-35.5-23.1-61.8c-17.7-26.4-26.6-46.9-26.6-46.9l-7.6 3.5s26.6 70.2 32.8 81.7c6.2 11.3 6.6 9.8 24.5 23.5z"/><path fill="#b97a59" d="M1688.4 411s-12.6-4.6-24.9-14.6c-12.3-10-12.2-10.3-14.3-15-2.1-4.7 1.6-13.5 6.1-9.8 4.4 3.7 8.2 11.9 11.7 14.3 8.9 6.2 6.6.6 6-1-.6-1.6-1.6-3.9-.1-5s2.7 2.5 3.6 3.7c.9 1.2 7.5 6.8 8.8 8.1 1.3 1.2 1 5.4 2.9 8.9 2 3.6 7.2 18.7 4.7 20.8-.1 0-.7-8.6-4.5-10.4zM1507.6 795.8s-8.1 22.1-13.6 32.3c-5.5 10.1-10.2 16.9-12.5 26-2.3 9.1 30.6-2.1 34.3-8 3.7-5.9 4.5-26 17.6-41.1 13.3-15.1-25.8-9.2-25.8-9.2z"/><path fill="#0b4870" d="M1648.5 597s-98.8 44.3-108.7 57.4c-9.8 13.1-26.7 114.3-33.8 141.5-1.5 5.7 22.3 13.6 29 9.5 6.7-4.1 35.9-63.7 40.8-79.1 5.3-17.1 3.4-37.5 7.6-39.4 8.8-4.1 96.8-28.3 109.3-37.6 12.6-9.3 49-42.1 45.2-53-3.8-10.8-89.4.7-89.4.7zM1523.6 821s6.5 8.9 8.1 12.8c1.6 3.9 5.6 7.7 2.5 11.8-3.1 4-15 12.5-24.2 26.5-9.1 14-25.2 30.1-35.8 35.4-10.6 5.3-26.2 3.7-26.3-2.2-.1-5.9 8.5-14.1 12.8-17.2 4.3-3.2 21.7-41.6 24-47.6 2.3-6 5.6-8.9 10-6.1 4.4 2.8 9.9 4.6 17.2-1.2 7.3-5.7 11.7-12.2 11.7-12.2z"/><path fill="#ffbe55" d="M1807.3 508.9s-15.9 17.9-20.8 35.1c-5 17.2 6.6 63.3-21.4 96.7-14.2 17-96.9 8-96.9 8 67.1-119.3 71.1-138.5 67.1-152.4-4-13.9-.3-20.6 12.7-31.4 12.9-10.8 22.4-20.5 25.2-33.1 2.8-12.4 104.7-35.1 34.1 77.1z"/><path fill="#aa6b4f" d="M1834.8 428.4s-5.2-4.5-6.2-23.8-1.3-29.3 2.3-36.2c3.6-6.8-33.6-8.2-34.5 5.9-.8 14.1-3 16.1.8 31 3.9 14.9-9.5 19-12.4 20.2-5.8 2.5-22.6 24.4 50 2.9z"/><path fill="#b97a59" d="M1805.4 348.5c6.7 1.6 13.3 2.3 19.4.7-5 33.1-32.5 37.5-33.5 37.6-1 .1-2 .2-3.3-1.2-1.3-1.4-18-22.7-9.4-56 .6-2.4 4.6 13.5 26.8 18.9zM1820 438c-11.9 2.5-48.6 75.2-59.2 95-10.6 19.8-19.7 45.2-3.2 39 16.5-6.2 28.8-26.3 38.7-40.3 9.8-14.1 22.6-34.2 30.2-43.9s5.4-52.3-6.5-49.8zM1632.7 764.6s12.6 21.3 13.3 29.1c.7 7.8 1.6 13.1 7.7 11.5 6.1-1.6 15.5-19.6 14.1-25.3-1.4-5.7-15.7-19.2-17.9-28.3-2.1-9.1-17.3 16.6-17.3 16.6l.1-3.6z"/><path fill="#0b4870" d="M1658 764.2s8.4 4.3 13.5 4.8c5.1.6 12.2 5.7 11.5 16.5-.7 10.8-2.9 32.4-2.7 46 .2 13.6-11.4 36.1-14.5 40.6-5 7.3-16.4 7.3-19 .9-2.6-6.4.5-24.4.7-33.6.2-9.2-3.5-39.4-3.8-43.1-.3-3.7 9.4-11.7 12.8-7.3 3.4 4.4 6.6-.7 6.7-4 0-3.3-5.2-20.8-5.2-20.8z"/><path fill="#0e538c" d="M1703.4 593.9c-20.9.2-117.1-7.7-130.7 5-13.6 12.8 8.8 49.2 79 66.3 70.2 17.1 83.6 12.3 106-12.2 22.4-24.5-38.7-59.3-54.3-59.1z"/><path fill="#0e538c" d="M1602.5 628.7s37.3 33.9 40.2 71.4c2.8 37.5 10.2 55 10.2 55l-20.3 13s-62.3-105-66.8-126.1c-4.5-21.1-3-43.9 10.7-40.5 13.7 3.4 26 27.2 26 27.2z"/><path fill="#89d5da" d="M1632.5 767.9c.1.1.1.2.1.2l17.7-11.3-17.8 11.1z"/><path fill="#b97a59" d="M1752.7 573.1c-22.2 1.7-57.5 2.5-57.5 2.5s-49 7.4-2.8-11.1c10-4 36.1-17.1 72.9-21.9 4-.5 2 .6 6.2 2.3 7.3 2.9-.8 26.8-18.8 28.2z"/><path fill="#b97a59" d="m1653.7 584.4-.1-2.6 5.7-6.1s13.5-5.4 19.2-5.4c5.7 0 26.2-8.9 28.9-9.2 2.7-.3 9.7 11.3 9.7 11.3s-22.5 3.3-31.4 5.5c-8.8 2.2-20.4 10-23.9 11-5.9 1.7-8.7 2.9-8.7 2.9s-.4-3.6 8.7-6.8c2.4-.9.2-3.3.2-3.3l-8.3 2.7z"/><path fill="#d3d3d3" d="M1705.4 593.9s0-.1.1-.1l-.1-3.5h-130v3.6l.3.6c1.7 3 4.7 3.5 8.1 3.5H1697c3.4 0 6.4-.5 8.1-3.5l.3-.6z"/><path fill="#f7f7f7" d="M1674.1 594.5s-.1 0 0 0l.3.6c.5.8 1.2 1.3 1.9 1.8h19.8c3.3 0 6.2-.4 7.8-2.9l.3-.5s0-.1.1-.1v-1.7h-30.1v2.8zM1673.3 590.2l-16.9-70.4c-.4-1.9-2.2-3.4-3.9-3.4h-91.2c-1.7 0-2.7 1.5-2.2 3.4l16.9 70.4h97.3z"/><path fill="#d3d3d3" d="M1621.8 553.3c.9 3.6-1.1 6.5-4.3 6.5-3.3 0-6.6-2.9-7.5-6.5-.9-3.6 1.1-6.5 4.3-6.5 3.3 0 6.6 2.9 7.5 6.5z"/><path fill="#0b4870" d="M1795.4 307.1c3.4-1.5 37.6-7.7 53.9 9 16.3 16.7 20.7 41.6 12.9 64.7-7.8 23.1 2.3 20.9 11.7 40.4 19.5 40.1-31.7 65.7-60 43.2-15.2-12.1-15.7-49.7-11.8-75.5 3.9-25.8 27.7-33.9 13.6-39.2-16.5-6.2-50-29.2-20.3-42.6z"/></svg>