<?xml version="1.0" encoding="utf-8"?>
<!-- Generator: Adobe Illustrator 26.0.1, SVG Export Plug-In . SVG Version: 6.00 Build 0)  -->
<svg version="1.1" id="Layer_1" xmlns="http://www.w3.org/2000/svg" xmlns:xlink="http://www.w3.org/1999/xlink" x="0px" y="0px"
	 viewBox="0 0 90 70" style="enable-background:new 0 0 90 70;" xml:space="preserve">
<style type="text/css">
	.st0{fill:#2A4C87;}
	.st1{fill:#2E4E88;}
	.st2{fill:#1F3D70;}
	.st3{fill:#194C88;}
	.st4{fill:#3468A3;}
	.st5{fill:#4C8DCB;}
	.st6{fill:#3498B3;}
	.st7{fill:#0AA496;}
	.st8{fill:#00AA75;}
	.st9{fill:#4FBA6A;}
	.st10{fill:#7EC45F;}
	.st11{fill:#4C609B;}
	.st12{fill:#54669F;}
	.st13{fill:#746FA7;}
	.st14{fill:#99558E;}
	.st15{fill:#AF3379;}
	.st16{fill:#BE266A;}
	.st17{fill:#D4525C;}
	.st18{fill:#E0654F;}
	.st19{fill:#F57F2A;}
	.st20{fill:#F89828;}
	.st21{fill:#FEC127;}
	.st22{fill:#FED627;}
	.st23{fill:#351A55;}
</style>
<g>
	<path class="st0" d="M80.2,27.7c0.5,1.8,2.4,2.9,4.2,2.4c1.8-0.5,2.9-2.4,2.4-4.2c-0.5-1.8-2.4-2.9-4.2-2.4l0,0
		C80.8,23.9,79.7,25.8,80.2,27.7z"/>
	<path class="st0" d="M75.5,31.3c1.2-0.3,2-1.6,1.7-2.9c-0.3-1.2-1.6-2-2.9-1.7c-1.2,0.3-2,1.6-1.7,2.9l0,0
		C72.9,30.9,74.2,31.7,75.5,31.3z"/>
	<path class="st0" d="M68.6,32.5c0.9-0.3,1.5-1.2,1.2-2.1c-0.3-0.9-1.2-1.5-2.1-1.2c-0.9,0.3-1.5,1.2-1.2,2.1l0,0
		C66.7,32.2,67.7,32.8,68.6,32.5z"/>
	<path class="st1" d="M63.2,33.4c0.6-0.2,0.9-0.8,0.8-1.3c-0.1-0.6-0.8-0.9-1.3-0.8c-0.6,0.2-0.9,0.8-0.8,1.3
		C62,33.1,62.6,33.5,63.2,33.4z"/>
	<path class="st2" d="M77.6,20.7c0.9,1.5,2.8,2,4.3,1.2c1.5-0.9,2-2.8,1.2-4.3c-0.9-1.5-2.8-2-4.3-1.2l0,0
		C77.3,17.2,76.8,19.2,77.6,20.7z"/>
	<path class="st2" d="M70.7,24.6c0.6,1.1,1.9,1.4,3,0.8c1.1-0.6,1.4-1.9,0.8-3c-0.6-1.1-1.9-1.4-3-0.8l0,0
		C70.5,22.2,70.1,23.6,70.7,24.6z"/>
	<path class="st2" d="M65.8,25.7c-0.8,0.4-1,1.4-0.6,2.1c0.4,0.8,1.4,1,2.1,0.6c0.8-0.4,1-1.4,0.6-2.1l0,0
		C67.5,25.5,66.5,25.3,65.8,25.7z"/>
	<path class="st2" d="M61.4,28.9c-0.5,0.3-0.7,0.9-0.4,1.4c0.3,0.5,0.9,0.7,1.4,0.4c0.5-0.3,0.7-0.9,0.4-1.4l0,0
		C62.5,28.8,61.8,28.6,61.4,28.9z"/>
	<path class="st3" d="M77.3,14.5c1.1-1.1,1.1-2.9,0-4c-1.1-1.1-2.9-1.1-4,0c-1.1,1.1-1.1,2.9,0,4C74.4,15.6,76.2,15.6,77.3,14.5
		L77.3,14.5z"/>
	<path class="st3" d="M70.4,17.4c-0.8-0.8-2.1-0.8-2.9,0c-0.8,0.8-0.8,2.1,0,2.9c0.8,0.8,2.1,0.8,2.9,0l0,0
		C71.2,19.5,71.2,18.2,70.4,17.4z"/>
	<path class="st3" d="M63,22.8c-0.6,0.6-0.6,1.5,0,2c0.6,0.6,1.5,0.6,2,0c0.6-0.6,0.6-1.5,0-2C64.5,22.2,63.6,22.2,63,22.8z"/>
	<path class="st3" d="M59.5,28.2c0.4,0.4,1,0.4,1.3,0c0.4-0.4,0.4-1,0-1.3c-0.4-0.4-1-0.4-1.3,0C59.2,27.3,59.2,27.9,59.5,28.2
		L59.5,28.2z"/>
	<path class="st4" d="M67.4,9.8c1.3,0.7,2.9,0.3,3.6-1c0.7-1.3,0.3-2.9-1-3.6c-1.3-0.7-2.9-0.3-3.6,1l0,0C65.6,7.4,66.1,9,67.4,9.8
		C67.3,9.8,67.4,9.8,67.4,9.8z"/>
	<path class="st4" d="M62.6,14.3c-0.5,0.9-0.2,2.1,0.7,2.6c0.9,0.5,2.1,0.2,2.6-0.7c0.5-0.9,0.2-2.1-0.7-2.6
		C64.2,13,63.1,13.4,62.6,14.3L62.6,14.3z"/>
	<path class="st4" d="M61.3,20.1c-0.6-0.3-1.4-0.1-1.7,0.5c-0.3,0.6-0.1,1.4,0.5,1.7c0.6,0.3,1.4,0.1,1.7-0.5
		C62.1,21.3,61.9,20.5,61.3,20.1z"/>
	<path class="st4" d="M58.4,25.2c-0.4-0.2-0.9-0.1-1.2,0.3c-0.2,0.4-0.1,0.9,0.3,1.2s0.9,0.1,1.2-0.3C59,25.9,58.8,25.4,58.4,25.2
		L58.4,25.2z"/>
	<path class="st5" d="M60.3,6.7c1.3,0.4,2.7-0.4,3.1-1.8c0.4-1.3-0.4-2.7-1.8-3.1c-1.3-0.3-2.7,0.4-3.1,1.8l0,0
		C58.2,5,59,6.3,60.3,6.7z"/>
	<path class="st5" d="M58.2,14.6c0.9,0.3,1.9-0.3,2.1-1.2c0.3-0.9-0.3-1.9-1.2-2.1c-0.9-0.3-1.9,0.3-2.1,1.2l0,0
		C56.8,13.4,57.3,14.3,58.2,14.6z"/>
	<path class="st5" d="M56.6,20.8c0.6,0.2,1.3-0.2,1.4-0.8c0.2-0.6-0.2-1.3-0.8-1.4c-0.6-0.2-1.3,0.2-1.4,0.8
		C55.6,20,55.9,20.6,56.6,20.8z"/>
	<path class="st5" d="M54.7,24.7c-0.1,0.4,0.1,0.9,0.6,1c0.4,0.1,0.9-0.1,1-0.6c0.1-0.4-0.1-0.9-0.6-1l0,0
		C55.3,24,54.8,24.3,54.7,24.7z"/>
	<path class="st6" d="M52.7,5.5c1.3,0,2.4-1.1,2.4-2.4S54,0.8,52.7,0.8s-2.4,1.1-2.4,2.4l0,0C50.4,4.5,51.5,5.5,52.7,5.5L52.7,5.5z"
		/>
	<path class="st6" d="M52.7,10.6c-0.9,0-1.6,0.7-1.6,1.6c0,0.9,0.7,1.6,1.6,1.6s1.6-0.7,1.6-1.6l0,0C54.3,11.3,53.6,10.6,52.7,10.6z
		"/>
	<path class="st6" d="M53.8,19.1c0-0.6-0.5-1.1-1.1-1.1s-1.1,0.5-1.1,1.1s0.5,1.1,1.1,1.1l0,0C53.4,20.2,53.8,19.7,53.8,19.1
		L53.8,19.1z"/>
	<path class="st6" d="M52.7,23.8c-0.4,0-0.7,0.3-0.7,0.7c0,0.4,0.3,0.7,0.7,0.7s0.7-0.3,0.7-0.7l0,0C53.5,24.1,53.1,23.8,52.7,23.8z
		"/>
	<path class="st7" d="M45.1,6.4c1.2-0.3,1.9-1.5,1.5-2.7c-0.3-1.2-1.5-1.9-2.7-1.5s-1.9,1.5-1.5,2.7l0,0C42.7,6,43.9,6.7,45.1,6.4z"
		/>
	<path class="st7" d="M45.5,13.3c0.2,0.8,1,1.2,1.7,1c0.8-0.2,1.2-1,1-1.7c-0.2-0.8-1-1.2-1.7-1l0,0C45.7,11.8,45.3,12.5,45.5,13.3z
		"/>
	<path class="st7" d="M47.6,19.9c0.1,0.6,0.7,0.9,1.2,0.7c0.6-0.1,0.9-0.7,0.7-1.2c-0.1-0.6-0.7-0.9-1.2-0.7
		C47.8,18.8,47.5,19.4,47.6,19.9C47.6,19.9,47.6,19.9,47.6,19.9z"/>
	<path class="st7" d="M49.4,25.1c0.1,0.3,0.4,0.5,0.8,0.4c0.3-0.1,0.5-0.4,0.4-0.8c-0.1-0.3-0.4-0.5-0.8-0.4l0,0
		C49.5,24.4,49.3,24.7,49.4,25.1z"/>
	<path class="st8" d="M37.9,9.3c1-0.6,1.3-1.8,0.8-2.8s-1.8-1.3-2.8-0.8c-1,0.6-1.3,1.8-0.8,2.8l0,0C35.6,9.5,36.9,9.8,37.9,9.3z"/>
	<path class="st8" d="M41.9,16.3c0.6-0.3,0.8-1.1,0.5-1.7c-0.3-0.6-1.1-0.8-1.7-0.5c-0.6,0.3-0.8,1.1-0.5,1.7l0,0
		C40.6,16.4,41.3,16.6,41.9,16.3L41.9,16.3z"/>
	<path class="st8" d="M45.3,22.1c0.5-0.3,0.6-0.8,0.3-1.3c-0.3-0.5-0.8-0.6-1.3-0.3s-0.6,0.8-0.3,1.3l0,0
		C44.2,22.2,44.8,22.3,45.3,22.1L45.3,22.1z"/>
	<path class="st8" d="M48,25.7c-0.2-0.3-0.5-0.3-0.8-0.2C47,25.6,46.9,26,47,26.2c0.2,0.3,0.5,0.3,0.7,0.2
		C48,26.3,48.1,25.9,48,25.7z"/>
	<path class="st9" d="M31.6,13.9c0.7-0.7,0.7-1.9,0-2.7c-0.7-0.7-1.9-0.7-2.7,0c-0.7,0.7-0.7,1.9,0,2.7l0,0
		C29.7,14.6,30.9,14.6,31.6,13.9z"/>
	<path class="st9" d="M37.4,18.1c-0.4-0.4-1.1-0.4-1.5,0c-0.4,0.4-0.4,1.1,0,1.5c0.4,0.4,1.1,0.4,1.5,0l0,0
		C37.8,19.2,37.8,18.5,37.4,18.1z"/>
	<path class="st9" d="M42.1,23.2c-0.3-0.3-0.9-0.3-1.2,0s-0.3,0.9,0,1.2s0.9,0.3,1.2,0C42.4,24.1,42.4,23.5,42.1,23.2L42.1,23.2z"/>
	<path class="st9" d="M45.7,27.3c-0.2-0.2-0.5-0.2-0.6,0c-0.2,0.2-0.2,0.5,0,0.6s0.5,0.2,0.6,0C45.9,27.8,45.9,27.5,45.7,27.3z"/>
	<path class="st10" d="M24.3,20.6c0.8,0.5,1.9,0.2,2.4-0.6c0.5-0.8,0.2-1.9-0.6-2.4c-0.8-0.5-1.9-0.2-2.4,0.6l0,0
		C23.2,19,23.5,20.1,24.3,20.6z"/>
	<path class="st10" d="M33.4,22.8c-0.5-0.3-1-0.1-1.3,0.3c-0.3,0.5-0.1,1,0.3,1.3c0.5,0.3,1,0.1,1.3-0.3
		C34,23.6,33.8,23.1,33.4,22.8z"/>
	<path class="st10" d="M39.4,26.4c-0.4-0.2-0.9-0.1-1.1,0.3c-0.2,0.4-0.1,0.9,0.3,1.1c0.4,0.2,0.9,0.1,1.1-0.3
		C39.9,27.1,39.7,26.6,39.4,26.4L39.4,26.4z"/>
	<path class="st11" d="M84.6,31.2c-2.1,0-3.8,1.7-3.8,3.8c0,2.1,1.7,3.8,3.8,3.8c2.1,0,3.8-1.7,3.8-3.8
		C88.4,32.9,86.7,31.2,84.6,31.2L84.6,31.2z"/>
	<path class="st11" d="M78.4,35c0-1.5-1.2-2.7-2.7-2.7c-1.5,0-2.7,1.2-2.7,2.7c0,1.5,1.2,2.7,2.7,2.7l0,0
		C77.2,37.7,78.4,36.5,78.4,35z"/>
	<path class="st11" d="M68.7,33.2c-1,0-1.8,0.8-1.8,1.8c0,1,0.8,1.8,1.8,1.8s1.8-0.8,1.8-1.8C70.6,34,69.7,33.2,68.7,33.2z"/>
	<path class="st12" d="M64.5,35c0-0.7-0.5-1.2-1.2-1.2c-0.7,0-1.2,0.5-1.2,1.2c0,0.7,0.5,1.2,1.2,1.2l0,0C64,36.2,64.5,35.7,64.5,35
		L64.5,35z"/>
	<path class="st13" d="M84.4,39.9c-1.8-0.5-3.7,0.6-4.2,2.4c-0.5,1.8,0.6,3.7,2.4,4.2c1.8,0.5,3.7-0.6,4.2-2.4c0,0,0,0,0,0
		C87.4,42.3,86.2,40.4,84.4,39.9z"/>
	<path class="st13" d="M74.3,43.2c1.2,0.3,2.5-0.4,2.9-1.7c0.3-1.2-0.4-2.5-1.7-2.9c-1.2-0.3-2.5,0.4-2.9,1.7
		C72.3,41.6,73,42.8,74.3,43.2L74.3,43.2z"/>
	<path class="st13" d="M67.7,40.8c0.9,0.3,1.9-0.3,2.1-1.2c0.3-0.9-0.3-1.9-1.2-2.1c-0.9-0.3-1.9,0.3-2.1,1.2
		C66.2,39.6,66.8,40.5,67.7,40.8L67.7,40.8z"/>
	<path class="st13" d="M62.6,38.8c0.6,0.2,1.2-0.2,1.3-0.8c0.2-0.6-0.2-1.2-0.8-1.3c-0.6-0.2-1.2,0.2-1.3,0.8
		C61.7,38,62.1,38.6,62.6,38.8C62.6,38.8,62.6,38.8,62.6,38.8z"/>
	<path class="st14" d="M81.9,48.2c-1.5-0.9-3.4-0.3-4.3,1.2c-0.9,1.5-0.3,3.4,1.2,4.3c1.5,0.9,3.4,0.3,4.3-1.2
		C83.9,51,83.4,49.1,81.9,48.2z"/>
	<path class="st14" d="M74.5,47.5c0.6-1.1,0.3-2.4-0.8-3c-1.1-0.6-2.4-0.3-3,0.8c-0.6,1.1-0.3,2.4,0.8,3l0,0
		C72.6,49,73.9,48.6,74.5,47.5z"/>
	<path class="st14" d="M67.9,43.7c0.4-0.8,0.2-1.7-0.6-2.1c-0.8-0.4-1.7-0.2-2.1,0.6c-0.4,0.8-0.2,1.7,0.6,2.1l0,0
		C66.5,44.7,67.5,44.5,67.9,43.7z"/>
	<path class="st14" d="M62.8,40.7c0.3-0.5,0.1-1.1-0.4-1.4c-0.5-0.3-1.1-0.1-1.4,0.4s-0.1,1.1,0.4,1.4c0,0,0,0,0,0
		C61.9,41.4,62.5,41.2,62.8,40.7z"/>
	<path class="st15" d="M73.3,55.5c-1.1,1.1-1.1,2.9,0,4c1.1,1.1,2.9,1.1,4,0c1.1-1.1,1.1-2.9,0-4C76.2,54.4,74.4,54.4,73.3,55.5z"/>
	<path class="st15" d="M70.4,52.6c0.8-0.8,0.8-2.1,0-2.9c-0.8-0.8-2.1-0.8-2.9,0c-0.8,0.8-0.8,2.1,0,2.9
		C68.3,53.4,69.6,53.4,70.4,52.6L70.4,52.6z"/>
	<path class="st15" d="M65,47.2c0.6-0.6,0.6-1.5,0-2c-0.6-0.6-1.5-0.6-2,0c-0.6,0.6-0.6,1.5,0,2C63.6,47.8,64.5,47.8,65,47.2
		L65,47.2z"/>
	<path class="st15" d="M59.5,43.1c0.4,0.4,1,0.4,1.3,0c0.4-0.4,0.4-1,0-1.3c-0.4-0.4-1-0.4-1.3,0l0,0C59.2,42.1,59.2,42.7,59.5,43.1
		L59.5,43.1z"/>
	<path class="st16" d="M67.4,60.2c-1.3,0.7-1.7,2.4-1,3.6c0.7,1.3,2.4,1.7,3.6,1s1.7-2.4,1-3.6l0,0C70.3,59.9,68.6,59.5,67.4,60.2
		L67.4,60.2z"/>
	<path class="st16" d="M65.8,53.9c-0.5-0.9-1.7-1.2-2.6-0.7c-0.9,0.5-1.2,1.7-0.7,2.6c0.5,0.9,1.7,1.2,2.6,0.7
		C66,55.9,66.4,54.8,65.8,53.9L65.8,53.9z"/>
	<path class="st16" d="M61.3,49.9c0.6-0.3,0.8-1.1,0.5-1.7c-0.3-0.6-1.1-0.8-1.7-0.5c-0.6,0.3-0.8,1.1-0.5,1.7
		C60,50,60.7,50.2,61.3,49.9L61.3,49.9z"/>
	<path class="st16" d="M57.6,43.3c-0.4,0.2-0.6,0.8-0.3,1.2c0.2,0.4,0.8,0.6,1.2,0.3c0.4-0.2,0.6-0.8,0.3-1.2
		C58.5,43.2,58,43.1,57.6,43.3L57.6,43.3z"/>
	<path class="st17" d="M60.3,63.3c-1.3,0.4-2.1,1.7-1.8,3.1c0.4,1.3,1.7,2.1,3.1,1.8c1.3-0.4,2.1-1.7,1.8-3.1l0,0
		C63.1,63.7,61.7,62.9,60.3,63.3L60.3,63.3z"/>
	<path class="st17" d="M59.1,58.7c0.9-0.3,1.5-1.2,1.2-2.1c-0.3-0.9-1.2-1.5-2.1-1.2c-0.9,0.3-1.5,1.2-1.2,2.1
		C57.3,58.5,58.2,59,59.1,58.7C59.1,58.8,59.1,58.8,59.1,58.7z"/>
	<path class="st17" d="M58,50c-0.2-0.6-0.8-1-1.4-0.8s-1,0.8-0.8,1.4c0.2,0.6,0.8,1,1.4,0.8C57.8,51.3,58.2,50.7,58,50
		C58,50.1,58,50.1,58,50z"/>
	<path class="st17" d="M56.2,44.9c-0.1-0.4-0.6-0.7-1-0.6c-0.4,0.1-0.7,0.6-0.6,1c0.1,0.4,0.5,0.7,1,0.6
		C56.1,45.8,56.3,45.3,56.2,44.9L56.2,44.9z"/>
	<path class="st18" d="M52.7,64.5c-1.3,0-2.4,1.1-2.4,2.4c0,1.3,1.1,2.4,2.4,2.4s2.4-1,2.4-2.4C55.1,65.5,54.1,64.5,52.7,64.5
		L52.7,64.5z"/>
	<path class="st18" d="M51.2,57.9c0,0.9,0.7,1.6,1.6,1.6s1.6-0.7,1.6-1.6c0-0.9-0.7-1.6-1.6-1.6l0,0C51.9,56.3,51.2,57,51.2,57.9z"
		/>
	<path class="st18" d="M52.7,52c0.6,0,1.1-0.5,1.1-1.1s-0.5-1.1-1.1-1.1c-0.6,0-1.1,0.5-1.1,1.1C51.7,51.5,52.1,52,52.7,52
		C52.7,52,52.7,52,52.7,52z"/>
	<path class="st18" d="M52.7,44.8c-0.4,0-0.7,0.3-0.7,0.7s0.3,0.7,0.7,0.7s0.7-0.3,0.7-0.7l0,0C53.5,45.1,53.1,44.8,52.7,44.8z"/>
	<path class="st19" d="M45.1,63.6c-1.2-0.3-2.4,0.4-2.7,1.5c-0.3,1.2,0.4,2.4,1.5,2.7c1.2,0.3,2.4-0.4,2.7-1.5
		C46.9,65.1,46.2,63.9,45.1,63.6L45.1,63.6z"/>
	<path class="st19" d="M47.2,55.7c-0.8-0.2-1.5,0.3-1.7,1c-0.2,0.8,0.3,1.5,1,1.7c0.8,0.2,1.5-0.3,1.7-1
		C48.4,56.7,47.9,55.9,47.2,55.7z"/>
	<path class="st19" d="M48.9,49.3c-0.6-0.1-1.1,0.2-1.2,0.7c-0.1,0.6,0.2,1.1,0.7,1.2c0.6,0.1,1.1-0.2,1.2-0.7l0,0
		C49.8,50.1,49.4,49.5,48.9,49.3L48.9,49.3z"/>
	<path class="st19" d="M50.6,45.3c0.1-0.3-0.1-0.7-0.4-0.8c-0.3-0.1-0.7,0.1-0.8,0.4s0.1,0.7,0.4,0.8l0,0
		C50.2,45.8,50.6,45.6,50.6,45.3z"/>
	<path class="st20" d="M37.9,60.7c-1-0.6-2.2-0.2-2.8,0.7c-0.6,1-0.2,2.2,0.7,2.8c1,0.6,2.2,0.2,2.8-0.7
		C39.2,62.6,38.8,61.3,37.9,60.7L37.9,60.7z"/>
	<path class="st20" d="M41.9,53.7c-0.6-0.3-1.4-0.1-1.7,0.5s-0.1,1.4,0.5,1.7c0.6,0.3,1.4,0.1,1.7-0.5l0,0
		C42.7,54.8,42.5,54,41.9,53.7L41.9,53.7z"/>
	<path class="st20" d="M44.3,49.6c0.5,0.3,1,0.1,1.3-0.3s0.1-1-0.3-1.3c-0.5-0.3-1-0.1-1.3,0.3l0,0C43.7,48.7,43.9,49.3,44.3,49.6z"
		/>
	<path class="st20" d="M47.8,43.6c-0.3-0.2-0.6-0.1-0.7,0.2c-0.2,0.3-0.1,0.6,0.2,0.7c0.3,0.2,0.6,0.1,0.7-0.2
		C48.1,44.1,48,43.7,47.8,43.6C47.8,43.6,47.8,43.6,47.8,43.6z"/>
	<path class="st21" d="M28.9,56.1c-0.7,0.7-0.7,1.9,0,2.7s1.9,0.7,2.7,0c0.7-0.7,0.7-1.9,0-2.7l0,0C30.9,55.4,29.7,55.4,28.9,56.1z"
		/>
	<path class="st21" d="M35.8,50.4c-0.4,0.4-0.4,1.1,0,1.5c0.4,0.4,1.1,0.4,1.5,0c0.4-0.4,0.4-1.1,0-1.5l0,0
		C36.9,49.9,36.2,49.9,35.8,50.4L35.8,50.4z"/>
	<path class="st21" d="M40.9,45.6c-0.3,0.3-0.3,0.9,0,1.2s0.9,0.3,1.2,0c0.3-0.3,0.3-0.9,0-1.2C41.8,45.2,41.2,45.2,40.9,45.6
		L40.9,45.6z"/>
	<path class="st21" d="M45.7,42c-0.2-0.2-0.5-0.2-0.6,0c-0.2,0.2-0.2,0.5,0,0.6c0.2,0.2,0.5,0.2,0.6,0C45.9,42.5,45.9,42.2,45.7,42z
		"/>
	<path class="st22" d="M24.3,49.4c-0.8,0.5-1.1,1.5-0.6,2.4c0.5,0.8,1.5,1.1,2.4,0.6c0.8-0.5,1.1-1.5,0.6-2.4
		C26.2,49.2,25.2,48.9,24.3,49.4L24.3,49.4z"/>
	<path class="st22" d="M32.5,45.6c-0.4,0.3-0.6,0.8-0.3,1.3c0.3,0.4,0.8,0.6,1.3,0.3c0.4-0.3,0.6-0.8,0.3-1.3
		C33.5,45.5,32.9,45.3,32.5,45.6L32.5,45.6z"/>
	<path class="st22" d="M38.6,42.2c-0.4,0.2-0.5,0.7-0.3,1.1c0.2,0.4,0.7,0.5,1.1,0.3c0.4-0.2,0.5-0.7,0.3-1.1
		C39.4,42.1,39,42,38.6,42.2L38.6,42.2z"/>
	<path class="st23" d="M20.8,29.5h2.8v10.6h-2.8V29.5z M22.5,24.8c-0.9-0.2-1.7,0.3-2,1.1s0.3,1.7,1.1,2s1.7-0.3,2-1.1
		C23.9,25.9,23.4,25,22.5,24.8L22.5,24.8L22.5,24.8z M32.1,40.4c-0.7,0-1.3-0.1-2-0.4c-0.6-0.3-1-0.6-1.4-1.1v6.6h-2.7v-16h2.7V31
		c0.3-0.5,0.8-0.9,1.4-1.2c0.6-0.3,1.3-0.5,2-0.5c0.7,0,1.3,0.1,1.9,0.4c0.6,0.3,1.2,0.6,1.6,1.1c0.5,0.5,0.9,1.1,1.1,1.8
		c0.3,0.7,0.4,1.5,0.4,2.3c0,0.8-0.1,1.6-0.4,2.3c-0.3,0.6-0.7,1.2-1.2,1.8C34.7,39.9,33.5,40.4,32.1,40.4L32.1,40.4z M31.6,37.8
		c0.4,0,0.8-0.1,1.2-0.2c0.3-0.2,0.7-0.4,0.9-0.6c0.3-0.3,0.5-0.6,0.6-0.9c0.3-0.8,0.3-1.6,0-2.4c-0.1-0.3-0.4-0.7-0.6-0.9
		c-0.3-0.3-0.6-0.5-0.9-0.6c-0.4-0.2-0.8-0.2-1.2-0.2c-0.8,0-1.5,0.3-2.1,0.9c-0.3,0.3-0.5,0.6-0.6,0.9c-0.3,0.8-0.3,1.6,0,2.3
		c0.1,0.3,0.3,0.7,0.6,0.9C30,37.5,30.8,37.8,31.6,37.8L31.6,37.8z M39.2,29.5h2.7v1.6c0.2-0.6,0.6-1.1,1.2-1.4
		c0.6-0.3,1.2-0.5,1.8-0.4c0.3,0,0.7,0,1,0.1c0.3,0.1,0.6,0.2,0.8,0.3l-1,2.7c-0.2-0.1-0.4-0.2-0.6-0.3c-0.3-0.1-0.6-0.1-0.8-0.1
		c-0.6,0-1.2,0.2-1.7,0.6c-0.4,0.4-0.6,1-0.6,1.9v5.6h-2.7L39.2,29.5z M52.6,40.4c-0.8,0-1.5-0.1-2.2-0.4c-0.7-0.3-1.3-0.7-1.8-1.2
		c-1-1-1.6-2.4-1.6-3.9c0-0.7,0.1-1.5,0.4-2.2c0.3-0.7,0.7-1.3,1.2-1.8c2.2-2.2,5.8-2.2,8,0c1,1,1.6,2.4,1.6,3.9
		c0,0.7-0.1,1.5-0.4,2.1c-0.3,0.7-0.7,1.3-1.2,1.8c-0.5,0.5-1.1,0.9-1.8,1.2C54.2,40.2,53.4,40.4,52.6,40.4L52.6,40.4z M52.7,37.8
		c0.4,0,0.8-0.1,1.2-0.2c0.3-0.2,0.6-0.4,0.9-0.6c0.3-0.3,0.5-0.6,0.6-0.9c0.3-0.8,0.3-1.6,0-2.3c-0.1-0.3-0.3-0.7-0.6-0.9
		c-0.3-0.3-0.6-0.5-0.9-0.6c-0.7-0.3-1.6-0.3-2.3,0c-0.3,0.2-0.6,0.4-0.9,0.6c-0.3,0.3-0.5,0.6-0.6,0.9c-0.3,0.8-0.3,1.6,0,2.3
		c0.1,0.3,0.3,0.7,0.6,0.9s0.6,0.5,0.9,0.6C51.9,37.7,52.3,37.8,52.7,37.8L52.7,37.8z M1.6,29.5h2.8l2.1,6.8L9,29.5h2.4l2.5,6.8
		l2.2-6.8h2.8l-3.6,10.6h-2.6l-2.5-6.9l-2.6,6.9H5L1.6,29.5z"/>
</g>
</svg>
