<!--?xml version="1.0" standalone="no"?-->
              <svg id="sw-js-blob-svg" viewBox="0 0 100 100" xmlns="http://www.w3.org/2000/svg" version="1.1">
                    <defs> 
                        <linearGradient id="sw-gradient" x1="0" x2="1" y1="1" y2="0">
                            <stop id="stop1" stop-color="rgba(248, 117, 55, 1)" offset="0%"></stop>
                            <stop id="stop2" stop-color="rgba(251, 168, 31, 1)" offset="100%"></stop>
                        </linearGradient>
                    </defs>
                <path fill="url(#sw-gradient)" d="M19.2,-23.9C25.9,-17.3,32.9,-12.2,35.4,-5.2C37.8,1.7,35.6,10.5,30.8,16.9C26,23.2,18.7,27.2,11,29.8C3.3,32.5,-4.8,33.8,-12.2,31.8C-19.6,29.8,-26.5,24.5,-30,17.7C-33.6,10.8,-34,2.4,-32.1,-5.2C-30.2,-12.7,-26.1,-19.4,-20.3,-26.2C-14.6,-33.1,-7.3,-40,-0.5,-39.4C6.3,-38.8,12.5,-30.6,19.2,-23.9Z" width="100%" height="100%" transform="translate(50 50)" stroke-width="0" style="transition: all 0.3s ease 0s;" stroke="url(#sw-gradient)"></path>
              </svg>