<!--?xml version="1.0" standalone="no"?-->
              <svg id="sw-js-blob-svg" viewBox="0 0 100 100" xmlns="http://www.w3.org/2000/svg" version="1.1">
                    <defs> 
                        <linearGradient id="sw-gradient" x1="0" x2="1" y1="1" y2="0">
                            <stop id="stop1" stop-color="rgba(18.708, 221.346, 67.454, 1)" offset="0%"></stop>
                            <stop id="stop2" stop-color="rgba(0, 255, 197.535, 1)" offset="100%"></stop>
                        </linearGradient>
                    </defs>
                <path fill="url(#sw-gradient)" d="M21,-26.5C26.2,-20.6,28.7,-13.1,31.2,-4.7C33.7,3.8,36.1,13,33,19.8C30,26.5,21.3,30.7,13.2,31.8C5,32.8,-2.7,30.7,-11.2,28.5C-19.8,26.4,-29.2,24.4,-34,18.5C-38.8,12.6,-38.9,2.9,-36.1,-5.2C-33.2,-13.2,-27.5,-19.5,-21,-25.2C-14.5,-30.8,-7.2,-35.7,0.3,-36.1C7.9,-36.5,15.8,-32.3,21,-26.5Z" width="100%" height="100%" transform="translate(50 50)" stroke-width="0" style="transition: all 0.3s ease 0s;" stroke="url(#sw-gradient)"></path>
              </svg>