<!--?xml version="1.0" standalone="no"?-->
              <svg id="sw-js-blob-svg" viewBox="0 0 100 100" xmlns="http://www.w3.org/2000/svg" version="1.1">
                    <defs> 
                        <linearGradient id="sw-gradient" x1="0" x2="1" y1="1" y2="0">
                            <stop id="stop1" stop-color="rgba(248, 117, 55, 1)" offset="0%"></stop>
                            <stop id="stop2" stop-color="rgba(251, 168, 31, 1)" offset="100%"></stop>
                        </linearGradient>
                    </defs>
                <path fill="url(#sw-gradient)" d="M25.9,-29.6C32.9,-24.9,37.7,-16.2,38.5,-7.4C39.3,1.3,36.1,10.2,31.3,17.6C26.4,24.9,19.9,30.9,12,34.5C4,38.1,-5.4,39.4,-12.4,36C-19.4,32.6,-24,24.6,-28.1,16.6C-32.3,8.6,-36.1,0.8,-36.5,-8.1C-36.9,-17,-34,-27,-27.3,-31.8C-20.7,-36.6,-10.3,-36.2,-0.5,-35.6C9.4,-35,18.8,-34.3,25.9,-29.6Z" width="100%" height="100%" transform="translate(50 50)" stroke-width="0" style="transition: all 0.3s ease 0s;" stroke="url(#sw-gradient)"></path>
              </svg>