<?xml version="1.0" encoding="utf-8"?><svg xmlns="http://www.w3.org/2000/svg" xmlns:xlink="http://www.w3.org/1999/xlink" width="1280" height="381" preserveAspectRatio="xMidYMid" viewBox="0 0 1280 381" style="z-index:1;margin-right:-2px;display:block;background-repeat-y:initial;background-repeat-x:initial;background-color:rgb(255, 255, 255);animation-play-state:paused" ><g transform="translate(640,190.5) scale(1,1) translate(-640,-190.5)" style="transform:matrix(1, 0, 0, 1, 0, 0);animation-play-state:paused" ><g transform="translate(993.9894455443093,-84.08236003653343) scale(100)" opacity="0.4" style="transform:matrix(100, 0, 0, 100, 993.989, -84.0824);opacity:0.4;animation-play-state:paused" ><path d="M4.3456 0 C4.3456 1.0304 4.511387623222914 1.4148474239405142 3.9961876232229145 2.3072 S3.0651525760594858 3.2481999946856566 2.1728000000000005 3.7633999946856567 S1.0304000000000002 4.614400000000001 2.825505094992774e-16 4.614400000000001 S-1.2804474239405135 4.278599994685657 -2.172799999999999 3.763399994685657 S-3.480987623222913 3.199552576059487 -3.9961876232229137 2.3072000000000017 S-4.3456 1.0304000000000004 -4.3456 5.321825130374739e-16 S-4.511387623222914 -1.4148474239405133 -3.996187623222915 -2.307199999999999 S-3.065152576059487 -3.2481999946856552 -2.172800000000002 -3.763399994685656 S-1.0304000000000009 -4.614400000000001 -8.47651528497832e-16 -4.614400000000001 S1.280447423940511 -4.278599994685658 2.172799999999997 -3.7633999946856584 S3.4809876232229127 -3.199552576059488 3.996187623222913 -2.3072000000000026 S4.3456 -1.030400000000001 4.3456 -1.0643650260749477e-15" fill="#ff00ff" stroke-width="0" transform="matrix(1,0,0,1,0,0)" style="transform:matrix(1, 0, 0, 1, 0, 0);animation-play-state:paused" ></path></g>
<g transform="translate(1064.7873346531712,-138.99883204384014) scale(100)" opacity="0.4" style="transform:matrix(100, 0, 0, 100, 1064.79, -138.999);opacity:0.4;animation-play-state:paused" ><path d="M5.21472 0 C5.21472 1.23648 5.413665147867498 1.6978169087286172 4.795425147867498 2.76864 S3.678183091271383 3.897839993622787 2.6073600000000003 4.516079993622787 S1.2364800000000005 5.537280000000001 3.3906061139913284e-16 5.537280000000001 S-1.5365369087286158 5.134319993622788 -2.6073599999999986 4.516079993622788 S-4.177185147867496 3.8394630912713845 -4.795425147867496 2.768640000000002 S-5.21472 1.2364800000000007 -5.21472 6.386190156449685e-16 S-5.413665147867498 -1.6978169087286161 -4.7954251478674985 -2.768639999999999 S-3.678183091271385 -3.8978399936227865 -2.607360000000002 -4.516079993622787 S-1.2364800000000011 -5.537280000000001 -1.0171818341973985e-15 -5.537280000000001 S1.5365369087286131 -5.134319993622789 2.6073599999999963 -4.51607999362279 S4.177185147867496 -3.8394630912713854 4.795425147867496 -2.768640000000003 S5.21472 -1.2364800000000014 5.21472 -1.277238031289937e-15" fill="#00c6ff" stroke-width="0" transform="matrix(1,0,0,1,0,0)" style="transform:matrix(1, 0, 0, 1, 0, 0);animation-play-state:paused" ></path></g>
<g transform="translate(1234.7022685144398,-270.7983648613761) scale(100)" opacity="0.4" style="transform:matrix(100, 0, 0, 100, 1234.7, -270.798);opacity:0.4;animation-play-state:paused" ><path d="M7.3006079999999995 0 C7.3006079999999995 1.7310719999999997 7.579131207014495 2.376943672220064 6.713595207014495 3.8760959999999995 S5.149456327779936 5.456975991071902 3.6503040000000007 6.322511991071902 S1.7310720000000002 7.752192 4.7468485595878595e-16 7.752192 S-2.1511516722200623 7.188047991071903 -3.650303999999998 6.322511991071903 S-5.848059207014493 5.375248327779937 -6.713595207014493 3.8760960000000027 S-7.3006079999999995 1.7310720000000006 -7.3006079999999995 8.94066621902956e-16 S-7.579131207014496 -2.3769436722200616 -6.713595207014496 -3.8760959999999978 S-5.149456327779938 -5.456975991071901 -3.650304000000003 -6.322511991071901 S-1.731072000000001 -7.752192 -1.4240545678763578e-15 -7.752192 S2.1511516722200588 -7.188047991071905 3.650303999999995 -6.322511991071906 S5.848059207014493 -5.375248327779938 6.713595207014493 -3.8760960000000035 S7.3006079999999995 -1.7310720000000015 7.3006079999999995 -1.788133243805912e-15" fill="#00ffff" stroke-width="0" transform="matrix(1,0,0,1,0,0)" style="transform:matrix(1, 0, 0, 1, 0, 0);animation-play-state:paused" ></path></g></g></svg>