<?xml version="1.0" standalone="no"?>
<svg xmlns:xlink="http://www.w3.org/1999/xlink" id="wave" style="transform:rotate(0deg); transition: 0.3s" viewBox="0 0 1440 430" version="1.1" xmlns="http://www.w3.org/2000/svg"><defs><linearGradient id="sw-gradient-0" x1="0" x2="0" y1="1" y2="0"><stop stop-color="rgba(62, 243, 223.582, 1)" offset="0%"/><stop stop-color="rgba(11, 157.182, 255, 1)" offset="100%"/></linearGradient></defs><path style="transform:translate(0, 0px); opacity:1" fill="url(#sw-gradient-0)" d="M0,215L120,236.5C240,258,480,301,720,265.2C960,229,1200,115,1440,107.5C1680,100,1920,201,2160,236.5C2400,272,2640,244,2880,229.3C3120,215,3360,215,3600,236.5C3840,258,4080,301,4320,286.7C4560,272,4800,201,5040,207.8C5280,215,5520,301,5760,315.3C6000,330,6240,272,6480,265.2C6720,258,6960,301,7200,279.5C7440,258,7680,172,7920,114.7C8160,57,8400,29,8640,14.3C8880,0,9120,0,9360,21.5C9600,43,9840,86,10080,86C10320,86,10560,43,10800,71.7C11040,100,11280,201,11520,207.8C11760,215,12000,129,12240,129C12480,129,12720,215,12960,236.5C13200,258,13440,215,13680,193.5C13920,172,14160,172,14400,143.3C14640,115,14880,57,15120,50.2C15360,43,15600,86,15840,93.2C16080,100,16320,72,16560,86C16800,100,17040,158,17160,186.3L17280,215L17280,430L17160,430C17040,430,16800,430,16560,430C16320,430,16080,430,15840,430C15600,430,15360,430,15120,430C14880,430,14640,430,14400,430C14160,430,13920,430,13680,430C13440,430,13200,430,12960,430C12720,430,12480,430,12240,430C12000,430,11760,430,11520,430C11280,430,11040,430,10800,430C10560,430,10320,430,10080,430C9840,430,9600,430,9360,430C9120,430,8880,430,8640,430C8400,430,8160,430,7920,430C7680,430,7440,430,7200,430C6960,430,6720,430,6480,430C6240,430,6000,430,5760,430C5520,430,5280,430,5040,430C4800,430,4560,430,4320,430C4080,430,3840,430,3600,430C3360,430,3120,430,2880,430C2640,430,2400,430,2160,430C1920,430,1680,430,1440,430C1200,430,960,430,720,430C480,430,240,430,120,430L0,430Z"/></svg>