<?xml version="1.0" standalone="no"?>
<svg xmlns:xlink="http://www.w3.org/1999/xlink" id="wave" style="transform:rotate(0deg); transition: 0.3s" viewBox="0 0 1440 430" version="1.1" xmlns="http://www.w3.org/2000/svg"><defs><linearGradient id="sw-gradient-0" x1="0" x2="0" y1="1" y2="0"><stop stop-color="rgba(62, 243, 223.582, 1)" offset="0%"/><stop stop-color="rgba(11, 157.182, 255, 1)" offset="100%"/></linearGradient></defs><path style="transform:translate(0, 0px); opacity:1" fill="url(#sw-gradient-0)" d="M0,43L120,71.7C240,100,480,158,720,179.2C960,201,1200,186,1440,207.8C1680,229,1920,287,2160,308.2C2400,330,2640,315,2880,308.2C3120,301,3360,301,3600,301C3840,301,4080,301,4320,250.8C4560,201,4800,100,5040,114.7C5280,129,5520,258,5760,272.3C6000,287,6240,186,6480,157.7C6720,129,6960,172,7200,207.8C7440,244,7680,272,7920,293.8C8160,315,8400,330,8640,286.7C8880,244,9120,143,9360,100.3C9600,57,9840,72,10080,71.7C10320,72,10560,57,10800,107.5C11040,158,11280,272,11520,322.5C11760,373,12000,358,12240,308.2C12480,258,12720,172,12960,164.8C13200,158,13440,229,13680,279.5C13920,330,14160,358,14400,315.3C14640,272,14880,158,15120,157.7C15360,158,15600,272,15840,322.5C16080,373,16320,358,16560,308.2C16800,258,17040,172,17160,129L17280,86L17280,430L17160,430C17040,430,16800,430,16560,430C16320,430,16080,430,15840,430C15600,430,15360,430,15120,430C14880,430,14640,430,14400,430C14160,430,13920,430,13680,430C13440,430,13200,430,12960,430C12720,430,12480,430,12240,430C12000,430,11760,430,11520,430C11280,430,11040,430,10800,430C10560,430,10320,430,10080,430C9840,430,9600,430,9360,430C9120,430,8880,430,8640,430C8400,430,8160,430,7920,430C7680,430,7440,430,7200,430C6960,430,6720,430,6480,430C6240,430,6000,430,5760,430C5520,430,5280,430,5040,430C4800,430,4560,430,4320,430C4080,430,3840,430,3600,430C3360,430,3120,430,2880,430C2640,430,2400,430,2160,430C1920,430,1680,430,1440,430C1200,430,960,430,720,430C480,430,240,430,120,430L0,430Z"/></svg>