<?xml version="1.0" standalone="no"?>
<svg xmlns:xlink="http://www.w3.org/1999/xlink" id="wave" style="transform:rotate(0deg); transition: 0.3s" viewBox="0 0 1440 430" version="1.1" xmlns="http://www.w3.org/2000/svg"><defs><linearGradient id="sw-gradient-0" x1="0" x2="0" y1="1" y2="0"><stop stop-color="rgba(62, 243, 223.582, 1)" offset="0%"/><stop stop-color="rgba(11, 157.182, 255, 1)" offset="100%"/></linearGradient></defs><path style="transform:translate(0, 0px); opacity:1" fill="url(#sw-gradient-0)" d="M0,43L120,64.5C240,86,480,129,720,129C960,129,1200,86,1440,78.8C1680,72,1920,100,2160,150.5C2400,201,2640,272,2880,265.2C3120,258,3360,172,3600,157.7C3840,143,4080,201,4320,250.8C4560,301,4800,344,5040,365.5C5280,387,5520,387,5760,372.7C6000,358,6240,330,6480,279.5C6720,229,6960,158,7200,164.8C7440,172,7680,258,7920,265.2C8160,272,8400,201,8640,207.8C8880,215,9120,301,9360,344C9600,387,9840,387,10080,322.5C10320,258,10560,129,10800,121.8C11040,115,11280,229,11520,243.7C11760,258,12000,172,12240,129C12480,86,12720,86,12960,114.7C13200,143,13440,201,13680,250.8C13920,301,14160,344,14400,358.3C14640,373,14880,358,15120,329.7C15360,301,15600,258,15840,258C16080,258,16320,301,16560,279.5C16800,258,17040,172,17160,129L17280,86L17280,430L17160,430C17040,430,16800,430,16560,430C16320,430,16080,430,15840,430C15600,430,15360,430,15120,430C14880,430,14640,430,14400,430C14160,430,13920,430,13680,430C13440,430,13200,430,12960,430C12720,430,12480,430,12240,430C12000,430,11760,430,11520,430C11280,430,11040,430,10800,430C10560,430,10320,430,10080,430C9840,430,9600,430,9360,430C9120,430,8880,430,8640,430C8400,430,8160,430,7920,430C7680,430,7440,430,7200,430C6960,430,6720,430,6480,430C6240,430,6000,430,5760,430C5520,430,5280,430,5040,430C4800,430,4560,430,4320,430C4080,430,3840,430,3600,430C3360,430,3120,430,2880,430C2640,430,2400,430,2160,430C1920,430,1680,430,1440,430C1200,430,960,430,720,430C480,430,240,430,120,430L0,430Z"/></svg>