<svg xmlns="http://www.w3.org/2000/svg" version="1.1" xmlns:xlink="http://www.w3.org/1999/xlink" xmlns:svgjs="http://svgjs.com/svgjs" width="1428" height="560" preserveAspectRatio="none" viewBox="0 0 1428 560"><g mask="url(&quot;#SvgjsMask3559&quot;)" fill="none"><use xlink:href="#SvgjsSymbol3566" x="0" y="0"></use><use xlink:href="#SvgjsSymbol3566" x="720" y="0"></use></g><defs><mask id="SvgjsMask3559"><rect width="1428" height="560" fill="#ffffff"></rect></mask><path d="M-1 0 a1 1 0 1 0 2 0 a1 1 0 1 0 -2 0z" id="SvgjsPath3562"></path><path d="M-3 0 a3 3 0 1 0 6 0 a3 3 0 1 0 -6 0z" id="SvgjsPath3564"></path><path d="M-5 0 a5 5 0 1 0 10 0 a5 5 0 1 0 -10 0z" id="SvgjsPath3560"></path><path d="M2 -2 L-2 2z" id="SvgjsPath3563"></path><path d="M6 -6 L-6 6z" id="SvgjsPath3561"></path><path d="M30 -30 L-30 30z" id="SvgjsPath3565"></path></defs><symbol id="SvgjsSymbol3566"><use xlink:href="#SvgjsPath3560" x="30" y="30" stroke="#1c538e"></use><use xlink:href="#SvgjsPath3561" x="30" y="90" stroke="#1c538e"></use><use xlink:href="#SvgjsPath3561" x="30" y="150" stroke="#1c538e"></use><use xlink:href="#SvgjsPath3561" x="30" y="210" stroke="#1c538e"></use><use xlink:href="#SvgjsPath3562" x="30" y="270" stroke="#1c538e"></use><use xlink:href="#SvgjsPath3561" x="30" y="330" stroke="#1c538e"></use><use xlink:href="#SvgjsPath3560" x="30" y="390" stroke="#1c538e"></use><use xlink:href="#SvgjsPath3561" x="30" y="450" stroke="#1c538e"></use><use xlink:href="#SvgjsPath3561" x="30" y="510" stroke="#1c538e"></use><use xlink:href="#SvgjsPath3560" x="30" y="570" stroke="#1c538e"></use><use xlink:href="#SvgjsPath3563" x="90" y="30" stroke="#1c538e"></use><use xlink:href="#SvgjsPath3563" x="90" y="90" stroke="#1c538e"></use><use xlink:href="#SvgjsPath3563" x="90" y="150" stroke="#1c538e"></use><use xlink:href="#SvgjsPath3563" x="90" y="210" stroke="#1c538e"></use><use xlink:href="#SvgjsPath3562" x="90" y="270" stroke="#1c538e"></use><use xlink:href="#SvgjsPath3561" x="90" y="330" stroke="#1c538e"></use><use xlink:href="#SvgjsPath3561" x="90" y="390" stroke="#1c538e"></use><use xlink:href="#SvgjsPath3560" x="90" y="450" stroke="#1c538e"></use><use xlink:href="#SvgjsPath3561" x="90" y="510" stroke="#1c538e"></use><use xlink:href="#SvgjsPath3560" x="90" y="570" stroke="#1c538e"></use><use xlink:href="#SvgjsPath3562" x="150" y="30" stroke="#1c538e"></use><use xlink:href="#SvgjsPath3561" x="150" y="90" stroke="#1c538e"></use><use xlink:href="#SvgjsPath3560" x="150" y="150" stroke="#1c538e"></use><use xlink:href="#SvgjsPath3561" x="150" y="210" stroke="#1c538e"></use><use xlink:href="#SvgjsPath3560" x="150" y="270" stroke="#1c538e"></use><use xlink:href="#SvgjsPath3560" x="150" y="330" stroke="#1c538e"></use><use xlink:href="#SvgjsPath3560" x="150" y="390" stroke="#1c538e"></use><use xlink:href="#SvgjsPath3560" x="150" y="450" stroke="#1c538e"></use><use xlink:href="#SvgjsPath3563" x="150" y="510" stroke="#1c538e"></use><use xlink:href="#SvgjsPath3562" x="150" y="570" stroke="#1c538e"></use><use xlink:href="#SvgjsPath3561" x="210" y="30" stroke="#1c538e"></use><use xlink:href="#SvgjsPath3564" x="210" y="90" stroke="#1c538e"></use><use xlink:href="#SvgjsPath3560" x="210" y="150" stroke="#1c538e"></use><use xlink:href="#SvgjsPath3564" x="210" y="210" stroke="#1c538e"></use><use xlink:href="#SvgjsPath3564" x="210" y="270" stroke="#1c538e"></use><use xlink:href="#SvgjsPath3561" x="210" y="330" stroke="#1c538e"></use><use xlink:href="#SvgjsPath3560" x="210" y="390" stroke="#1c538e"></use><use xlink:href="#SvgjsPath3561" x="210" y="450" stroke="#1c538e"></use><use xlink:href="#SvgjsPath3560" x="210" y="510" stroke="#1c538e"></use><use xlink:href="#SvgjsPath3563" x="210" y="570" stroke="#1c538e"></use><use xlink:href="#SvgjsPath3561" x="270" y="30" stroke="#1c538e"></use><use xlink:href="#SvgjsPath3560" x="270" y="90" stroke="#1c538e"></use><use xlink:href="#SvgjsPath3563" x="270" y="150" stroke="#1c538e"></use><use xlink:href="#SvgjsPath3561" x="270" y="210" stroke="#1c538e"></use><use xlink:href="#SvgjsPath3564" x="270" y="270" stroke="#1c538e"></use><use xlink:href="#SvgjsPath3561" x="270" y="330" stroke="#1c538e"></use><use xlink:href="#SvgjsPath3560" x="270" y="390" stroke="#1c538e"></use><use xlink:href="#SvgjsPath3561" x="270" y="450" stroke="#1c538e"></use><use xlink:href="#SvgjsPath3564" x="270" y="510" stroke="#1c538e"></use><use xlink:href="#SvgjsPath3561" x="270" y="570" stroke="#1c538e"></use><use xlink:href="#SvgjsPath3562" x="330" y="30" stroke="#1c538e"></use><use xlink:href="#SvgjsPath3561" x="330" y="90" stroke="#1c538e"></use><use xlink:href="#SvgjsPath3560" x="330" y="150" stroke="#1c538e"></use><use xlink:href="#SvgjsPath3565" x="330" y="210" stroke="#1c538e" stroke-width="3"></use><use xlink:href="#SvgjsPath3561" x="330" y="270" stroke="#1c538e"></use><use xlink:href="#SvgjsPath3565" x="330" y="330" stroke="#1c538e" stroke-width="3"></use><use xlink:href="#SvgjsPath3561" x="330" y="390" stroke="#1c538e"></use><use xlink:href="#SvgjsPath3560" x="330" y="450" stroke="#1c538e"></use><use xlink:href="#SvgjsPath3563" x="330" y="510" stroke="#1c538e"></use><use xlink:href="#SvgjsPath3560" x="330" y="570" stroke="#1c538e"></use><use xlink:href="#SvgjsPath3561" x="390" y="30" stroke="#1c538e"></use><use xlink:href="#SvgjsPath3565" x="390" y="90" stroke="#1c538e" stroke-width="3"></use><use xlink:href="#SvgjsPath3561" x="390" y="150" stroke="#1c538e"></use><use xlink:href="#SvgjsPath3561" x="390" y="210" stroke="#1c538e"></use><use xlink:href="#SvgjsPath3562" x="390" y="270" stroke="#1c538e"></use><use xlink:href="#SvgjsPath3561" x="390" y="330" stroke="#1c538e"></use><use xlink:href="#SvgjsPath3560" x="390" y="390" stroke="#1c538e"></use><use xlink:href="#SvgjsPath3564" x="390" y="450" stroke="#1c538e"></use><use xlink:href="#SvgjsPath3560" x="390" y="510" stroke="#1c538e"></use><use xlink:href="#SvgjsPath3561" x="390" y="570" stroke="#1c538e"></use><use xlink:href="#SvgjsPath3561" x="450" y="30" stroke="#1c538e"></use><use xlink:href="#SvgjsPath3563" x="450" y="90" stroke="#1c538e"></use><use xlink:href="#SvgjsPath3560" x="450" y="150" stroke="#1c538e"></use><use xlink:href="#SvgjsPath3563" x="450" y="210" stroke="#1c538e"></use><use xlink:href="#SvgjsPath3562" x="450" y="270" stroke="#1c538e"></use><use xlink:href="#SvgjsPath3560" x="450" y="330" stroke="#1c538e"></use><use xlink:href="#SvgjsPath3561" x="450" y="390" stroke="#1c538e"></use><use xlink:href="#SvgjsPath3562" x="450" y="450" stroke="#1c538e"></use><use xlink:href="#SvgjsPath3560" x="450" y="510" stroke="#1c538e"></use><use xlink:href="#SvgjsPath3560" x="450" y="570" stroke="#1c538e"></use><use xlink:href="#SvgjsPath3564" x="510" y="30" stroke="#1c538e"></use><use xlink:href="#SvgjsPath3565" x="510" y="90" stroke="#1c538e" stroke-width="3"></use><use xlink:href="#SvgjsPath3563" x="510" y="150" stroke="#1c538e"></use><use xlink:href="#SvgjsPath3563" x="510" y="210" stroke="#1c538e"></use><use xlink:href="#SvgjsPath3561" x="510" y="270" stroke="#1c538e"></use><use xlink:href="#SvgjsPath3560" x="510" y="330" stroke="#1c538e"></use><use xlink:href="#SvgjsPath3561" x="510" y="390" stroke="#1c538e"></use><use xlink:href="#SvgjsPath3563" x="510" y="450" stroke="#1c538e"></use><use xlink:href="#SvgjsPath3563" x="510" y="510" stroke="#1c538e"></use><use xlink:href="#SvgjsPath3564" x="510" y="570" stroke="#1c538e"></use><use xlink:href="#SvgjsPath3560" x="570" y="30" stroke="#1c538e"></use><use xlink:href="#SvgjsPath3560" x="570" y="90" stroke="#1c538e"></use><use xlink:href="#SvgjsPath3561" x="570" y="150" stroke="#1c538e"></use><use xlink:href="#SvgjsPath3560" x="570" y="210" stroke="#1c538e"></use><use xlink:href="#SvgjsPath3563" x="570" y="270" stroke="#1c538e"></use><use xlink:href="#SvgjsPath3560" x="570" y="330" stroke="#1c538e"></use><use xlink:href="#SvgjsPath3561" x="570" y="390" stroke="#1c538e"></use><use xlink:href="#SvgjsPath3560" x="570" y="450" stroke="#1c538e"></use><use xlink:href="#SvgjsPath3563" x="570" y="510" stroke="#1c538e"></use><use xlink:href="#SvgjsPath3563" x="570" y="570" stroke="#1c538e"></use><use xlink:href="#SvgjsPath3560" x="630" y="30" stroke="#1c538e"></use><use xlink:href="#SvgjsPath3562" x="630" y="90" stroke="#1c538e"></use><use xlink:href="#SvgjsPath3564" x="630" y="150" stroke="#1c538e"></use><use xlink:href="#SvgjsPath3563" x="630" y="210" stroke="#1c538e"></use><use xlink:href="#SvgjsPath3560" x="630" y="270" stroke="#1c538e"></use><use xlink:href="#SvgjsPath3562" x="630" y="330" stroke="#1c538e"></use><use xlink:href="#SvgjsPath3563" x="630" y="390" stroke="#1c538e"></use><use xlink:href="#SvgjsPath3564" x="630" y="450" stroke="#1c538e"></use><use xlink:href="#SvgjsPath3562" x="630" y="510" stroke="#1c538e"></use><use xlink:href="#SvgjsPath3561" x="630" y="570" stroke="#1c538e"></use><use xlink:href="#SvgjsPath3561" x="690" y="30" stroke="#1c538e"></use><use xlink:href="#SvgjsPath3562" x="690" y="90" stroke="#1c538e"></use><use xlink:href="#SvgjsPath3564" x="690" y="150" stroke="#1c538e"></use><use xlink:href="#SvgjsPath3560" x="690" y="210" stroke="#1c538e"></use><use xlink:href="#SvgjsPath3560" x="690" y="270" stroke="#1c538e"></use><use xlink:href="#SvgjsPath3564" x="690" y="330" stroke="#1c538e"></use><use xlink:href="#SvgjsPath3561" x="690" y="390" stroke="#1c538e"></use><use xlink:href="#SvgjsPath3561" x="690" y="450" stroke="#1c538e"></use><use xlink:href="#SvgjsPath3561" x="690" y="510" stroke="#1c538e"></use><use xlink:href="#SvgjsPath3564" x="690" y="570" stroke="#1c538e"></use></symbol></svg>